<svg width="100%" viewBox="0 0 680 300" role="img" xmlns="http://www.w3.org/2000/svg">
<title>sampled-speculative 프레임별 decode 시간: break-even</title>
<desc>8 연속 프레임 sampled-speculative. 일부 프레임은 빠르지만(124ms) 수락 실패 프레임은 baseline보다 느리다(2196ms). 평균 baseline 1259ms vs spec 1251ms로 무이득.</desc>
<style>text{font-family:Arial,'Malgun Gothic',sans-serif}.th{font-size:14px;font-weight:600}.ts{font-size:12px}</style>
<text class="ts" x="58" y="40" text-anchor="end" fill="#5F5E5A">decode (ms)</text>
<line x1="64" y1="44" x2="64" y2="250" stroke="#B4B2A9"/><line x1="64" y1="250" x2="650" y2="250" stroke="#B4B2A9"/>
<line x1="60" y1="159.1" x2="64" y2="159.1" stroke="#B4B2A9"/><text class="ts" x="58" y="163" text-anchor="end" fill="#888780">1000</text>
<line x1="60" y1="68.2" x2="64" y2="68.2" stroke="#B4B2A9"/><text class="ts" x="58" y="72" text-anchor="end" fill="#888780">2000</text>
<text class="ts" x="58" y="253" text-anchor="end" fill="#888780">0</text>

<g><rect x="84" y="127.7" width="24" height="122.3" fill="#D3D1C7" stroke="#5F5E5A" stroke-width="0.5"/><rect x="110" y="50.4" width="24" height="199.6" fill="#F5C4B3" stroke="#993C1D" stroke-width="0.5"/><text class="ts" x="110" y="266" text-anchor="middle" fill="#5F5E5A">1</text></g>
<g><rect x="159" y="125.4" width="24" height="124.6" fill="#D3D1C7" stroke="#5F5E5A" stroke-width="0.5"/><rect x="185" y="238.7" width="24" height="11.3" fill="#9FE1CB" stroke="#0F6E56" stroke-width="0.5"/><text class="ts" x="185" y="266" text-anchor="middle" fill="#5F5E5A">2</text></g>
<g><rect x="234" y="147.0" width="24" height="103.0" fill="#D3D1C7" stroke="#5F5E5A" stroke-width="0.5"/><rect x="260" y="82.6" width="24" height="167.4" fill="#F5C4B3" stroke="#993C1D" stroke-width="0.5"/><text class="ts" x="260" y="266" text-anchor="middle" fill="#5F5E5A">3</text></g>
<g><rect x="309" y="146.8" width="24" height="103.2" fill="#D3D1C7" stroke="#5F5E5A" stroke-width="0.5"/><rect x="335" y="238.7" width="24" height="11.3" fill="#9FE1CB" stroke="#0F6E56" stroke-width="0.5"/><text class="ts" x="335" y="266" text-anchor="middle" fill="#5F5E5A">4</text></g>
<g><rect x="384" y="127.6" width="24" height="122.4" fill="#D3D1C7" stroke="#5F5E5A" stroke-width="0.5"/><rect x="410" y="51.9" width="24" height="198.1" fill="#F5C4B3" stroke="#993C1D" stroke-width="0.5"/><text class="ts" x="410" y="266" text-anchor="middle" fill="#5F5E5A">5</text></g>
<g><rect x="459" y="146.9" width="24" height="103.1" fill="#D3D1C7" stroke="#5F5E5A" stroke-width="0.5"/><rect x="485" y="82.7" width="24" height="167.3" fill="#F5C4B3" stroke="#993C1D" stroke-width="0.5"/><text class="ts" x="485" y="266" text-anchor="middle" fill="#5F5E5A">6</text></g>
<g><rect x="534" y="127.7" width="24" height="122.3" fill="#D3D1C7" stroke="#5F5E5A" stroke-width="0.5"/><rect x="560" y="208.9" width="24" height="41.1" fill="#9FE1CB" stroke="#0F6E56" stroke-width="0.5"/><text class="ts" x="560" y="266" text-anchor="middle" fill="#5F5E5A">7</text></g>
<text class="ts" x="357" y="284" text-anchor="middle" fill="#888780">프레임 (연속) — 평균 baseline 1259ms vs spec 1251ms = break-even (무이득)</text>

<rect x="120" y="20" width="13" height="13" rx="2" fill="#D3D1C7" stroke="#5F5E5A" stroke-width="0.5"/><text class="ts" x="138" y="30" fill="#5F5E5A">baseline decode</text>
<rect x="270" y="20" width="13" height="13" rx="2" fill="#9FE1CB" stroke="#0F6E56" stroke-width="0.5"/><text class="ts" x="288" y="30" fill="#5F5E5A">spec 빠름(수락)</text>
<rect x="410" y="20" width="13" height="13" rx="2" fill="#F5C4B3" stroke="#993C1D" stroke-width="0.5"/><text class="ts" x="428" y="30" fill="#5F5E5A">spec 느림(실패 block)</text>
</svg>
